PathFileType	4	(X/Y/Z)	Patient4_TMGait_0pt7_01_right_30.trc.trc
DataRate	CameraRate	NumFrames	NumMarkers	Units	OrigDataRate	OrigDataStartFrame	OrigNumFrames
84.337349397591	84.337349397591	6	33	mm	84.337349397591	124	       141
Frame#	Time	Sacral			L.Shoulder			Chest			R.Shoulder			Neck			R.ASIS			L.ASIS			R.Thigh.Superior			R.Thigh.Lateral			R.Thigh.Inferior			R.Patella			L.Thigh.Superior			L.Thigh.Lateral			L.Thigh.Inferior			L.Patella			L.Shank.Superior			L.Shank.Lateral			L.Shank.Inferior			R.Shank.Superior			R.Shank.Lateral			R.Shank.Inferior			R.Heel			R.Midfoot.Superior			R.Midfoot.Lateral			R.Toe			L.Heel			L.Midfoot.Lateral			L.Midfoot.Superior			L.Toe			L.Elbow			L.Wrist			R.Elbow			R.Wrist			
		X1	Y1	Z1	X2	Y2	Z2	X3	Y3	Z3	X4	Y4	Z4	X5	Y5	Z5	X6	Y6	Z6	X7	Y7	Z7	X8	Y8	Z8	X9	Y9	Z9	X10	Y10	Z10	X11	Y11	Z11	X12	Y12	Z12	X13	Y13	Z13	X14	Y14	Z14	X15	Y15	Z15	X16	Y16	Z16	X17	Y17	Z17	X18	Y18	Z18	X19	Y19	Z19	X20	Y20	Z20	X21	Y21	Z21	X22	Y22	Z22	X23	Y23	Z23	X24	Y24	Z24	X25	Y25	Z25	X26	Y26	Z26	X27	Y27	Z27	X28	Y28	Z28	X29	Y29	Z29	X30	Y30	Z30	X31	Y31	Z31	X32	Y32	Z32	X33	Y33	Z33	

124	35.488428571429	803.601758455729	989.432348608959	489.130965528099	1017.414945712331	1409.528608940787	316.472413711034	1098.207507070854	1336.793377259365	489.355111643590	1001.959169853322	1422.406991982946	650.734891685247	1008.567225134201	1473.399001813258	469.250156782344	1019.084680990497	924.581002079469	627.708475771612	1029.651074570566	942.837325479439	350.888241332056	1097.396823307219	753.153980987293	603.730771832064	1044.538896997396	628.033500497110	665.289993834612	1138.854883595674	595.944802201903	590.931286582693	1166.928934066977	513.626000086730	601.732507925802	1021.940258157248	716.723414620426	377.529486476754	904.733650686029	627.768421647116	305.839688837198	954.538461210325	530.166862881128	373.460330093202	935.096305583977	461.244577843411	381.128217331643	895.073882672746	397.772825855170	369.451676827965	787.405140075487	305.828937903692	308.818294002080	804.145246864599	185.997253015768	380.944725854298	1156.346322411580	422.657793427594	610.375885180466	1104.816327145157	306.030794401988	668.466404802779	1177.433996334672	223.870431265880	615.946243527271	1086.816098132605	43.176891031511	581.379861673097	1251.678154165372	109.492331223424	623.555320425352	1170.285840179968	37.361150120825	654.727269504347	1374.715365919872	66.871466338809	648.237063835915	648.179749990387	44.696924835731	407.107414439460	728.639424391803	38.125468288572	333.999610653784	812.213227701959	95.846501248583	366.846024828986	940.188614900452	39.216955092980	348.123687190798	1077.104148515714	1094.673429919039	156.614559736567	1323.796515815477	1115.556112072165	213.288911857239	816.741847803393	1130.017521088984	748.538109007501	746.133137874428	876.317427342383	743.318945516889	
125	35.500285714286	805.489934607494	987.578481258941	492.381182962855	1018.780274598878	1407.837991722849	319.638760470119	1099.587367430884	1335.440015415050	492.631633153761	1003.149844278865	1421.097044258584	653.911556756476	1009.886135338390	1471.980128226908	472.383266259472	1021.537003610213	923.054450304377	630.812615853721	1031.590498943161	941.495764742309	354.175932864422	1100.951557809383	752.054798586837	606.605299014940	1046.427503419785	626.096962261533	665.899148738412	1141.701485108242	594.831588952019	592.458465848327	1168.272185374907	511.186986984966	601.631648966474	1024.289856626349	715.273448208263	379.813142686628	907.077288907994	625.951126652492	308.649195003719	957.881871311862	528.050634463935	375.645816189524	938.526922240157	457.885529345526	382.655855937623	895.832315430003	395.167210231846	371.119822007510	785.341810542876	306.619324105987	310.383878300136	799.231542478156	185.837013033863	381.252673682341	1156.549004517264	419.814312832813	609.915454740698	1103.125196914293	303.938891827591	667.771518818587	1173.644782945946	220.771116154527	614.513742744647	1078.887764435660	42.580961461120	580.004574664238	1244.907139714897	106.015208422574	621.327226361252	1162.094955661867	36.606148915117	653.831203475010	1367.265222326195	61.791917400877	646.920651056555	640.183250556816	47.600203316693	406.863202262067	720.546613144058	39.447737988108	333.897773756096	804.980961881389	96.095108526225	366.613756789323	931.887656424057	38.967325144097	348.043304416411	1077.495340573322	1092.530107734658	160.156373150791	1323.317276782315	1118.500998661441	217.970345271912	818.401907413110	1128.059596596015	750.878507568433	747.882799476077	874.186331299562	743.727182251806	
126	35.512142857143	807.188310195566	986.081649509114	495.700474293332	1020.172425260292	1406.505840230659	322.902636891788	1101.055488916970	1334.310458306141	495.924800147906	1004.558686159666	1419.991209233448	657.174580137252	1011.405250621121	1470.871314884260	475.637191100943	1023.956950023724	921.947976182279	633.847591237055	1033.219620365603	940.411877453393	357.427878708071	1104.514451148079	751.416867679483	608.982486219129	1048.849808095201	624.961071375550	666.654636331542	1144.558188377465	594.174055637567	593.667420271791	1169.887768847575	509.217809647915	601.619520968617	1027.095894557485	714.145042474063	382.177867025864	910.320776494370	624.012549477830	311.627341707557	962.623390408029	525.977139305539	377.949515781958	943.515657849071	454.406091447175	384.131439503951	897.824277663784	392.529631194504	372.826463740383	784.279602310709	307.875646841567	312.084998637188	795.042441532225	186.138945977680	381.582822458513	1156.781659570565	417.462043787982	609.607675919284	1101.465687066630	302.486472001987	667.566103257328	1169.480498940990	218.113317922627	613.373317593047	1070.195092822222	42.240937438092	579.188823255054	1237.385964490276	103.079044528107	619.475082293297	1153.263291704007	36.155668940524	653.363221631664	1359.132707325913	57.402835163792	645.790263026759	632.501339700320	51.804058426585	406.659789307090	712.603071444956	41.550679576709	333.834530706958	798.167393271244	96.570463177353	366.371143402406	923.465871316050	38.603390986278	348.033884242963	1077.243165173687	1090.373370895789	163.979266063836	1322.392405516315	1120.074820424287	222.708292373585	821.210362035392	1125.588672197903	753.609431154425	751.590438614462	871.343065970375	744.771094655317	
127	35.524000000000	808.682061340479	984.990575838225	499.053402384916	1021.558990888132	1405.612120559249	326.238806738605	1102.586224492278	1333.454204960009	499.191414110289	1006.186582294199	1419.136511721825	660.491858134014	1013.109987571462	1470.115870867516	478.985081617631	1026.291394562810	921.313696916543	636.793794814119	1034.487821429732	939.635517344241	360.578676584136	1107.871025795975	751.200816113737	610.859086542010	1051.620314477650	624.605131264743	667.641378754024	1147.191615045435	593.910941674728	594.609445526982	1171.532667567237	507.728767631531	601.817533916901	1030.350685073403	713.404711233196	384.633261612335	914.531560973003	622.003522329563	314.721857606646	968.815130806566	524.032424781176	380.344101351022	950.087269080692	450.920286549239	385.534897558920	901.143147888319	389.962708628680	374.540427340840	784.358747850278	309.709738297835	313.913817490160	791.721087939906	187.051908569136	381.972557397516	1156.897972585679	415.627539401051	609.555141680083	1099.772718971923	301.630462339854	667.864194421176	1165.053327016399	215.967229499279	612.597228731979	1061.177626775118	42.101465939539	578.853542322677	1229.428296564120	100.813253116003	618.079105455844	1144.204728664351	35.943495448622	653.257021403379	1350.671584629718	53.923608541709	644.917431490677	625.299656313327	57.586015981772	406.555275557299	704.913160658178	44.674785667275	333.851454031189	791.890487101719	97.378843105136	366.161436757715	914.918881407952	38.086190767292	348.119409787042	1076.291597824276	1088.291842257379	168.088018590534	1321.035221756705	1120.283514612655	227.498417245967	825.127110013696	1122.706278436995	756.693745451345	757.256500038812	867.900364263488	746.451547033427	
128	35.535857142857	809.971855366500	984.331316315228	502.418749558419	1022.896510572838	1405.202440257799	329.615011848901	1104.143416745637	1332.902511989467	502.386492820101	1008.019132094022	1418.565342300117	663.827702655310	1014.960543843523	1469.731360936975	482.390640177077	1028.494465960004	921.162179491021	639.638597139685	1035.362685741102	939.191137955730	363.569903637368	1110.824483874100	751.321781834281	612.307684743418	1054.471600113445	624.915785980051	668.900308517179	1149.381574188254	593.937674323276	595.379307519938	1172.934066178754	506.659880483872	602.311665624361	1034.031331946181	713.107141024502	387.177582997226	919.743806856198	619.987780509156	317.867632502859	976.451903972283	522.312283374010	382.786962113890	958.204685566775	447.559819866545	386.850500283783	905.848435242262	387.575878769364	376.231050340096	785.702487324048	312.211816062146	315.856957583176	789.405859292895	188.707524009059	382.461587227122	1156.711078481164	414.266808528657	609.820650714852	1097.897258822800	301.266419831469	668.616160877085	1160.394054159388	214.328979952257	612.211221297666	1052.139844444763	42.103698964173	578.893392959676	1221.251991502219	99.247703200870	617.151915145835	1135.193378421321	35.895918775154	653.428917041373	1342.123000870437	51.417408421945	644.333965856694	618.778055162462	65.167455837443	406.620042172745	697.618453221347	49.049046131437	333.997484897550	786.278116799104	98.643649584637	366.038903557136	906.282066427619	37.385491164529	348.314520053144	1074.598904967025	1086.372122494264	172.472388539971	1319.239776968276	1119.137173975819	232.335191319255	830.094638294890	1119.527110774825	760.093918781785	764.878705589361	863.991546519693	748.747144072274	
129	35.547714285714	811.067022973547	984.105359474724	505.789060562220	1024.132576361417	1405.282502582378	332.994583795039	1105.684777643776	1332.665098893388	505.466879342933	1010.027479152942	1418.288473517987	667.146124587221	1016.896184124690	1469.708758607909	485.813132849907	1030.529233266084	921.463600154675	642.371271847636	1035.832998951946	939.075142939498	366.355003655451	1113.216950614949	751.654558582978	613.470876716100	1057.076278271604	625.707925314558	670.428462296524	1150.934237655980	594.121807895102	596.102050330092	1173.822388939773	505.903412699937	603.138370021698	1038.100314080592	713.293602033771	389.791789428623	925.946505482047	618.043206170987	320.991806190034	985.462615370879	520.920355218946	385.221603414017	967.770168400527	444.469587687329	388.068416446224	911.955882442886	385.480863014826	377.872867270354	788.405175133638	315.440206638761	317.896360632238	788.220899830644	191.205747430467	383.086675654854	1156.023325900987	413.287967179605	610.421271639211	1095.649788708573	301.253871139304	669.725060650148	1155.477859573069	213.137896437237	612.196291170545	1043.258744934078	42.191256170958	579.194876654627	1212.993541765919	98.324591749323	616.649493209001	1126.376807245900	35.943493707201	653.790483648862	1333.627388124910	49.817393274822	644.032314131893	613.164461459664	74.675108618303	406.932873849914	690.899469699229	54.861024879613	334.325722301492	781.465997505350	100.498430784405	366.062654160144	897.647879295229	36.491854581268	348.617038322281	1072.140983745621	1084.688537208034	177.105397190059	1316.977355480283	1116.647762047027	237.209110218377	836.042726256637	1116.166863495049	763.776729190663	774.449653418413	859.760311927062	751.619424872074	
